<?xml version="1.0" standalone="no"?>
<!DOCTYPE svg PUBLIC "-//W3C//DTD SVG 20010904//EN"
 "http://www.w3.org/TR/2001/REC-SVG-20010904/DTD/svg10.dtd">
<svg version="1.0" xmlns="http://www.w3.org/2000/svg"
 width="512.000000pt" height="512.000000pt" viewBox="0 0 512.000000 512.000000"
 preserveAspectRatio="xMidYMid meet">

<g transform="translate(0.000000,512.000000) scale(0.100000,-0.100000)"
fill="#000000" stroke="none">
<path d="M2475 4659 c-273 -54 -517 -209 -671 -425 -98 -138 -170 -348 -194
-565 -6 -57 -18 -123 -26 -147 -18 -53 -17 -95 1 -147 12 -33 15 -138 15 -597
l0 -558 -178 0 c-214 0 -222 -3 -222 -82 0 -44 112 -1415 124 -1520 l4 -38
-284 0 c-271 0 -285 -1 -304 -20 -26 -26 -26 -72 1 -96 21 -19 66 -19 1856
-19 l1835 0 19 24 c25 31 24 63 -4 89 -23 21 -30 22 -271 22 l-248 0 6 53 c3
28 33 387 67 796 l62 745 -27 23 c-26 22 -35 23 -172 23 l-144 0 0 554 c0 469
2 559 15 589 8 20 15 59 15 87 0 28 -7 67 -15 87 -8 19 -15 55 -15 78 0 140
-44 317 -114 460 -63 127 -108 192 -208 293 -127 128 -270 213 -454 268 -78
24 -109 27 -254 30 -91 2 -187 -2 -215 -7z m359 -140 c157 -27 338 -122 460
-242 153 -152 247 -344 279 -568 l5 -37 -81 -28 c-206 -69 -556 -12 -884 146
-244 117 -391 243 -423 362 -18 64 -88 90 -130 48 -16 -16 -20 -33 -20 -83 0
-200 -80 -347 -226 -414 -31 -14 -58 -23 -61 -20 -8 8 33 186 62 269 74 212
235 386 450 489 190 91 357 113 569 78z m-432 -776 c193 -115 418 -201 642
-245 153 -29 348 -29 461 1 94 25 110 18 110 -50 0 -34 -6 -46 -33 -70 -29
-26 -39 -29 -93 -28 -74 2 -83 -5 -109 -96 -82 -286 -285 -499 -580 -606 -51
-18 -85 -23 -160 -23 -87 -1 -102 2 -178 36 -127 56 -188 96 -278 183 -120
117 -194 241 -239 400 -28 98 -35 105 -109 105 -59 0 -67 3 -95 31 -24 23 -31
40 -31 68 0 53 22 77 94 101 171 57 291 176 345 343 l13 37 67 -62 c38 -35
115 -91 173 -125z m-572 -600 c67 -202 226 -406 403 -518 43 -28 47 -33 47
-70 l0 -40 -252 -114 c-139 -63 -261 -118 -270 -123 -17 -8 -18 17 -18 462 l0
470 34 0 c32 0 34 -2 56 -67z m1750 -419 c0 -267 -3 -484 -7 -482 -39 19 -187
86 -373 171 -199 91 -225 106 -228 127 -2 21 6 30 58 59 209 114 406 353 470
569 12 38 16 42 47 42 l33 0 0 -486z m-1008 -235 c64 -10 123 -5 231 17 l27 6
0 -69 c0 -54 -5 -80 -23 -114 -63 -119 -216 -144 -318 -52 -46 41 -69 107 -69
194 l0 58 42 -15 c23 -8 72 -19 110 -25z m-276 -146 c3 -10 16 -42 30 -70 l24
-53 -188 1 c-150 0 -182 3 -162 12 144 67 276 126 283 127 4 0 10 -8 13 -17z
m836 -53 l153 -70 -187 0 c-104 0 -188 3 -188 8 0 4 6 16 14 27 8 11 19 39 26
63 7 23 17 42 21 42 4 0 77 -31 161 -70z m785 -252 c-3 -24 -31 -361 -63 -750
l-59 -708 -1167 0 c-643 0 -1168 2 -1168 5 0 2 -27 330 -60 729 -33 399 -60
734 -60 746 l0 20 1291 0 1292 0 -6 -42z"/>
<path d="M2277 3328 c-27 -22 -31 -61 -7 -91 27 -34 68 -36 98 -4 26 27 28 54
6 85 -17 25 -69 30 -97 10z"/>
<path d="M2957 3322 c-39 -43 -8 -112 50 -112 53 0 84 78 45 113 -25 22 -75
21 -95 -1z"/>
<path d="M2675 2990 c-35 -23 -63 -25 -89 -5 -28 21 -72 19 -96 -5 -60 -60 22
-144 140 -144 64 1 107 20 144 65 61 73 -17 143 -99 89z"/>
<path d="M995 4381 c-152 -71 -185 -271 -63 -388 72 -69 175 -83 269 -35 169
85 170 326 0 414 -65 34 -145 37 -206 9z m140 -125 c39 -17 57 -45 57 -91 0
-44 -16 -72 -54 -91 -93 -48 -191 68 -127 150 36 45 70 54 124 32z"/>
<path d="M4116 4219 c-54 -42 -19 -129 51 -129 22 0 38 8 52 26 28 35 26 69
-4 99 -30 30 -64 32 -99 4z"/>
<path d="M4107 3459 c-50 -29 -39 -85 27 -149 l36 -34 -45 -46 c-60 -61 -65
-109 -16 -135 38 -19 64 -10 116 44 l39 41 41 -39 c22 -21 50 -44 62 -50 40
-20 93 16 93 64 0 9 -20 38 -45 64 -25 26 -45 52 -45 56 0 4 20 30 45 56 51
55 57 85 22 117 -35 33 -62 27 -116 -23 -26 -25 -52 -45 -56 -45 -4 0 -30 20
-56 45 -49 46 -70 53 -102 34z"/>
<path d="M835 3395 c-14 -13 -25 -36 -25 -50 0 -14 11 -37 25 -50 48 -49 125
-19 125 50 0 69 -77 99 -125 50z"/>
</g>
</svg>
