<?xml version="1.0" standalone="no"?>
<!DOCTYPE svg PUBLIC "-//W3C//DTD SVG 20010904//EN"
 "http://www.w3.org/TR/2001/REC-SVG-20010904/DTD/svg10.dtd">
<svg version="1.0" xmlns="http://www.w3.org/2000/svg"
 width="512.000000pt" height="512.000000pt" viewBox="0 0 512.000000 512.000000"
 preserveAspectRatio="xMidYMid meet">

<g transform="translate(0.000000,512.000000) scale(0.100000,-0.100000)"
fill="#000000" stroke="none">
<path d="M510 4833 c-184 -31 -360 -163 -445 -332 -64 -127 -59 -36 -62 -1289
l-3 -1142 207 2 208 3 5 1080 c4 812 8 1087 17 1107 21 47 86 110 138 134 l50
24 1935 0 1935 0 50 -24 c60 -29 107 -76 134 -136 20 -44 21 -61 21 -1117 l0
-1073 210 0 211 0 -3 1133 -3 1132 -27 80 c-66 192 -221 341 -418 403 -51 15
-204 17 -2095 18 -1122 1 -2051 0 -2065 -3z"/>
<path d="M1363 3840 c-32 -13 -43 -41 -43 -110 0 -51 4 -65 25 -85 29 -30 64
-32 95 -7 18 14 24 32 28 75 5 67 -10 110 -44 126 -29 13 -31 13 -61 1z"/>
<path d="M2330 3843 c-49 -18 -71 -86 -51 -161 18 -64 77 -83 119 -39 29 31
32 143 5 175 -20 23 -50 33 -73 25z"/>
<path d="M1691 3734 c-12 -15 -21 -35 -21 -45 0 -51 117 -129 196 -129 103 0
216 81 200 144 -15 59 -76 74 -128 31 -19 -16 -42 -25 -65 -25 -23 0 -48 9
-69 25 -43 33 -86 33 -113 -1z"/>
<path d="M1271 3094 c-35 -45 -23 -95 26 -111 16 -5 262 -8 592 -5 535 4 564
5 582 23 26 26 24 71 -4 97 l-23 22 -576 0 -577 0 -20 -26z"/>
<path d="M2516 1820 c-72 -22 -116 -105 -96 -179 20 -76 115 -127 185 -101
135 51 131 241 -6 280 -39 11 -44 11 -83 0z"/>
<path d="M1876 1258 c-3 -18 -15 -139 -26 -268 -11 -129 -22 -250 -25 -267
l-6 -33 740 0 741 0 -5 28 c-3 15 -14 135 -25 267 -11 132 -23 255 -26 273
l-5 32 -679 0 -679 0 -5 -32z"/>
</g>
</svg>
